<svg data-v-7519e3d7="" width="130" height="50" viewBox="0 0 130 50" xmlns="http://www.w3.org/2000/svg" style="display: inline-block; vertical-align: baseline;"><g fill="#525252"><path d="M16.15 50v-2.53H2.81v-21.2h11.52v-2.53H2.8V2.53h13.34V0H0v50h16.15zm36.52 0V0h-3.09L38.7 30.55 27.8 0h-3.09v50h2.81V7.51l9.83 27.53h2.53l9.97-28.5V50h2.81zm29.08-36.52c0 10.68-3.86 13.49-10.11 13.49H65.6V50h-2.81V0h8.85c4.91 0 10.11 1.33 10.11 13.48zm-2.8 0c0-7.3-1.83-10.95-7.1-10.95H65.6v21.9h6.25c5.27 0 7.1-3.64 7.1-10.95zm27.38-10.95V0H86.81v2.53h8.35V50h2.81V2.53h8.36zM130 0h-3.09l-6.81 23.95L113.35 0h-3.09l8.43 28.58V50h2.81V28.58L130 0z" fill-rule="evenodd"></path></g></svg>
