<svg t="1648896448703" class="icon" viewBox="0 0 1024 1024" version="1.1" xmlns="http://www.w3.org/2000/svg" p-id="3752" width="200" height="200"><path d="M358.910299 1024c-61.23588 0-102.059801-40.82392-102.059801-102.059801l34.019934-483.083056c-71.44186-27.215947-112.265781-95.255814-102.059801-166.697675L239.840532 17.009967c3.401993-6.803987 10.20598-13.607973 17.009966-13.607974 10.20598 0 17.009967 6.803987 17.009967 17.009967l20.41196 207.521595c3.401993 6.803987 10.20598 13.607973 20.41196 13.607973s17.009967-6.803987 17.009967-17.009967l10.20598-204.119601c0-10.20598 6.803987-17.009967 17.009967-17.009967 6.803987 0 17.009967 6.803987 17.009967 13.607974l23.813953 207.521594c3.401993 10.20598 10.20598 17.009967 20.41196 17.009967s17.009967-6.803987 17.009967-17.009967l23.813954-207.521594c3.401993-6.803987 10.20598-13.607973 17.009966-13.607974 10.20598 0 17.009967 6.803987 17.009967 13.607974l34.019934 255.149501c10.20598 71.44186-30.61794 139.481728-102.059801 166.697675l34.019934 479.681063c0 68.039867-37.421927 105.461794-102.059801 105.461794zM253.448505 136.079734l-30.61794 142.883721c-10.20598 68.039867 37.421927 115.667774 91.85382 132.677741 6.803987 3.401993 13.607973 10.20598 10.20598 17.009967L290.870432 921.940199c0 47.627907 34.019934 68.039867 68.039867 68.039867 44.225914 0 68.039867-23.813953 68.039867-68.039867l-34.019933-493.289036c0-6.803987 3.401993-13.607973 10.20598-17.009967 51.0299-17.009967 102.059801-64.637874 91.85382-132.677741L477.980066 156.491694l-10.20598 74.843854c0 23.813953-20.41196 44.225914-47.627907 44.225914s-47.627907-20.41196-51.0299-47.627907l-3.401993-17.009967v17.009967c-3.401993 27.215947-27.215947 47.627907-51.029901 47.627907s-51.0299-20.41196-54.431893-47.627907l-6.803987-91.853821zM733.129568 1024c-30.61794 0-57.833887-13.607973-78.245847-34.019934-17.009967-20.41196-27.215947-47.627907-23.813954-74.843853l34.019934-353.807309c0-3.401993 3.401993-6.803987 3.401993-10.20598l23.813954-23.813954c-20.41196-27.215947-61.23588-102.059801-61.235881-255.149502 0-204.119601 180.305648-272.159468 180.305648-272.159468 6.803987 3.401993 13.607973 3.401993 17.009967 6.803987 3.401993 3.401993 6.803987 6.803987 6.803987 13.607973V921.940199c0 54.431894-47.627907 102.059801-102.059801 102.059801z m-34.019933-452.465116l-34.019934 347.003322c-3.401993 17.009967 3.401993 34.019934 17.009967 47.627907 13.607973 13.607973 30.61794 23.813953 51.0299 23.813953 34.019934 0 68.039867-34.019934 68.039867-68.039867V47.627907c-44.225914 23.813953-136.079734 88.451827-136.079734 227.933555 0 183.707641 61.23588 241.541528 61.23588 241.541528 3.401993 3.401993 6.803987 6.803987 6.803987 13.607973s0 10.20598-3.401993 13.607974l-30.61794 27.215947z" fill="#a7cd45" p-id="3753"></path></svg>
